<svg width="12" height="12" viewBox="0 0 12 12" fill="none" xmlns="http://www.w3.org/2000/svg">
<path d="M3.25016 0.75C2.94312 0.753042 2.64026 0.82151 2.36177 0.950837C2.08329 1.08017 1.83558 1.26738 1.63516 1.5C1.21881 1.98734 0.993216 2.60907 1.00016 3.25V3.75C0.997392 4.13859 1.08654 4.52234 1.26033 4.86991C1.43412 5.21749 1.68762 5.51905 2.00016 5.75V10C2.00016 10.3315 2.13185 10.6495 2.36627 10.8839C2.60069 11.1183 2.91863 11.25 3.25016 11.25C3.58168 11.25 3.89962 11.1183 4.13404 10.8839C4.36846 10.6495 4.50016 10.3315 4.50016 10V5.77C4.81269 5.53905 5.06619 5.23749 5.23998 4.88991C5.41377 4.54234 5.50292 4.15859 5.50016 3.77V3.27C5.51198 2.62221 5.28608 1.99254 4.86516 1.5C4.66473 1.26738 4.41702 1.08017 4.13854 0.950837C3.86005 0.82151 3.55719 0.753042 3.25016 0.75ZM4.50016 3.75C4.51204 3.99182 4.4634 4.23279 4.35863 4.45107C4.25386 4.66934 4.09627 4.85802 3.90016 5C3.77862 5.0911 3.67944 5.20869 3.61013 5.34384C3.54083 5.47899 3.50322 5.62815 3.50016 5.78V10C3.50016 10.0663 3.47382 10.1299 3.42693 10.1768C3.38005 10.2237 3.31646 10.25 3.25016 10.25C3.18385 10.25 3.12026 10.2237 3.07338 10.1768C3.02649 10.1299 3.00016 10.0663 3.00016 10V5.78C2.99709 5.62815 2.95948 5.47899 2.89018 5.34384C2.82087 5.20869 2.72169 5.0911 2.60016 5C2.40404 4.85802 2.24646 4.66934 2.14168 4.45107C2.03691 4.23279 1.98827 3.99182 2.00016 3.75V3.25C1.99455 2.85305 2.13312 2.46754 2.39016 2.165C2.49319 2.0358 2.62401 1.93148 2.77289 1.85979C2.92178 1.78809 3.08491 1.75086 3.25016 1.75086C3.41541 1.75086 3.57853 1.78809 3.72742 1.85979C3.8763 1.93148 4.00712 2.0358 4.11016 2.165C4.36719 2.46754 4.50576 2.85305 4.50016 3.25V3.75ZM11.0002 1.5C11.0002 1.36739 10.9475 1.24021 10.8537 1.14645C10.7599 1.05268 10.6328 1 10.5002 1C10.3675 1 10.2404 1.05268 10.1466 1.14645C10.0528 1.24021 10.0002 1.36739 10.0002 1.5V3.75C10.012 3.99182 9.9634 4.23279 9.85863 4.45107C9.75385 4.66934 9.59627 4.85802 9.40016 5C9.27528 5.09365 9.17406 5.21524 9.10461 5.35502C9.03515 5.49481 8.99938 5.64891 9.00016 5.805V10C9.00016 10.0663 8.97382 10.1299 8.92693 10.1768C8.88005 10.2237 8.81646 10.25 8.75016 10.25C8.68385 10.25 8.62026 10.2237 8.57338 10.1768C8.52649 10.1299 8.50016 10.0663 8.50016 10V5.78C8.49709 5.62815 8.45948 5.47899 8.39018 5.34384C8.32087 5.20869 8.22169 5.0911 8.10016 5C7.90503 4.85709 7.74818 4.66823 7.64352 4.45019C7.53886 4.23214 7.48961 3.99164 7.50016 3.75V1.5C7.50016 1.36739 7.44748 1.24021 7.35371 1.14645C7.25994 1.05268 7.13276 1 7.00016 1C6.86755 1 6.74037 1.05268 6.6466 1.14645C6.55283 1.24021 6.50016 1.36739 6.50016 1.5V4C6.50028 4.06702 6.51389 4.13334 6.54016 4.195C6.63916 4.82634 6.98437 5.3927 7.50016 5.77V10C7.50016 10.3315 7.63185 10.6495 7.86627 10.8839C8.10069 11.1183 8.41863 11.25 8.75016 11.25C9.08168 11.25 9.39962 11.1183 9.63404 10.8839C9.86846 10.6495 10.0002 10.3315 10.0002 10V5.77C10.5159 5.3927 10.8611 4.82634 10.9602 4.195C10.9864 4.13334 11 4.06702 11.0002 4V1.5ZM8.25016 3.5V1.5C8.25016 1.36739 8.30283 1.24021 8.3966 1.14645C8.49037 1.05268 8.61755 1 8.75016 1C8.88276 1 9.00994 1.05268 9.10371 1.14645C9.19748 1.24021 9.25016 1.36739 9.25016 1.5V3.5C9.25016 3.63261 9.19748 3.75979 9.10371 3.85355C9.00994 3.94732 8.88276 4 8.75016 4C8.61755 4 8.49037 3.94732 8.3966 3.85355C8.30283 3.75979 8.25016 3.63261 8.25016 3.5Z" fill="#868686"/>
</svg>
