<svg width="20" height="20" viewBox="0 0 20 20" fill="none" xmlns="http://www.w3.org/2000/svg">
<circle cx="10" cy="10" r="9.63636" fill="white" stroke="black" stroke-width="0.727273"/>
<path d="M10.0012 1.56812C10.2975 1.5698 10.969 1.63701 10.969 2.57593C10.9601 2.93854 10.8445 3.78178 10.6106 4.38257C10.5869 4.50118 10.5428 4.86916 10.8235 5.74292C10.8946 6.00394 10.8506 6.80277 10.7043 7.4353C10.5583 8.06753 10.7874 8.43534 10.8586 8.59351C10.9298 8.75165 10.3414 9.8748 10.2346 10.2781C10.2112 10.3532 10.2905 10.4875 10.6301 10.5388C10.7919 10.5903 10.8843 10.7085 10.6301 11.0828C10.5842 11.1561 10.5741 11.2893 10.7708 11.3376C10.9773 11.4033 10.7927 11.5577 10.7288 11.6042C10.6587 11.6552 10.6649 11.749 10.804 11.8093C10.9089 11.8492 11.0801 11.9771 10.9241 12.1687C10.729 12.4082 10.7153 12.7711 10.9836 12.9412C11.2522 13.1112 11.9788 13.4648 11.9514 14.5916C11.9255 15.654 11.4819 18.041 10.0012 18.4304V18.4314L10.0002 18.4304L9.99927 18.4314V18.4304C8.51875 18.0409 8.07502 15.6539 8.04907 14.5916C8.02168 13.4649 8.74833 13.1112 9.01685 12.9412C9.28528 12.7712 9.27233 12.4083 9.07739 12.1687C8.92137 11.9771 9.09155 11.8493 9.19653 11.8093C9.33563 11.749 9.3418 11.6552 9.27173 11.6042C9.20764 11.5576 9.02341 11.4032 9.22974 11.3376C9.42652 11.2893 9.41726 11.1562 9.37134 11.0828C9.11674 10.708 9.20924 10.5902 9.37134 10.5388C9.71048 10.4875 9.79015 10.3532 9.76685 10.2781C9.6601 9.8748 9.07068 8.75165 9.14185 8.59351C9.21304 8.43534 9.44229 8.06764 9.29614 7.4353C9.14987 6.80277 9.10586 6.00393 9.177 5.74292C9.45771 4.86916 9.41361 4.50118 9.38989 4.38257C9.156 3.78176 9.04134 2.93848 9.03247 2.57593C9.03247 1.63518 9.70587 1.56956 10.0012 1.56812Z" fill="#0E0D0D"/>
</svg>
