<svg width="20" height="20" viewBox="0 0 20 20" fill="none" xmlns="http://www.w3.org/2000/svg">
<circle cx="10" cy="10" r="9.63636" fill="#0E0D0D" stroke="white" stroke-width="0.727273"/>
<path d="M10.0015 1.56812C10.2978 1.56984 10.9683 1.63727 10.9683 2.57593C10.9594 2.93853 10.8447 3.78179 10.6108 4.38257C10.5871 4.50118 10.543 4.86916 10.8237 5.74292C10.8948 6.004 10.8509 6.80282 10.7046 7.4353C10.5585 8.06769 10.7877 8.43538 10.8589 8.59351C10.9301 8.75165 10.3406 9.8748 10.2339 10.2781C10.2106 10.3533 10.2903 10.4875 10.6294 10.5388C10.7915 10.5902 10.884 10.708 10.6294 11.0828C10.5835 11.1562 10.5742 11.2893 10.771 11.3376C10.9773 11.4032 10.7931 11.5576 10.729 11.6042C10.6589 11.6552 10.6651 11.749 10.8042 11.8093C10.9092 11.8493 11.0793 11.9772 10.9233 12.1687C10.7284 12.4083 10.7154 12.7712 10.9839 12.9412C11.2524 13.1112 11.9791 13.4649 11.9517 14.5916C11.9257 15.6539 11.482 18.0409 10.0015 18.4304V18.4314L10.0005 18.4304L9.99951 18.4314V18.4304C8.51878 18.0411 8.07527 15.654 8.04932 14.5916C8.02192 13.4649 8.74857 13.1112 9.01709 12.9412C9.2854 12.7711 9.27173 12.4082 9.07666 12.1687C8.9207 11.9771 9.09183 11.8492 9.19678 11.8093C9.33579 11.749 9.34203 11.6552 9.27197 11.6042C9.20805 11.5577 9.02346 11.4033 9.22998 11.3376C9.42652 11.2892 9.41652 11.1561 9.37061 11.0828C9.11643 10.7085 9.20877 10.5903 9.37061 10.5388C9.71031 10.4875 9.78963 10.3532 9.76611 10.2781C9.65936 9.8748 9.07092 8.75165 9.14209 8.59351C9.21334 8.43527 9.44159 8.0676 9.29541 7.4353C9.14912 6.80272 9.10608 6.00386 9.17725 5.74292C9.45795 4.86916 9.41386 4.50118 9.39014 4.38257C9.15622 3.78174 9.0406 2.93849 9.03174 2.57593C9.03174 1.63488 9.70626 1.56952 10.0015 1.56812Z" fill="white"/>
</svg>
