<svg width="12" height="12" viewBox="0 0 12 12" fill="none" xmlns="http://www.w3.org/2000/svg">
<path d="M6.00002 3.33244C5.68464 3.33244 5.37635 3.42596 5.11412 3.60118C4.85189 3.77639 4.64751 4.02543 4.52682 4.3168C4.40613 4.60817 4.37455 4.92879 4.43608 5.23811C4.49761 5.54743 4.64947 5.83156 4.87248 6.05456C5.09549 6.27757 5.37961 6.42944 5.68893 6.49096C5.99825 6.55249 6.31887 6.52091 6.61024 6.40022C6.90161 6.27953 7.15065 6.07515 7.32587 5.81292C7.50108 5.5507 7.5946 5.2424 7.5946 4.92702C7.5946 4.50411 7.4266 4.09852 7.12756 3.79948C6.82852 3.50044 6.42293 3.33244 6.00002 3.33244ZM6.00002 5.45855C5.89489 5.45855 5.79213 5.42738 5.70472 5.36897C5.61731 5.31057 5.54918 5.22755 5.50895 5.13043C5.46872 5.0333 5.4582 4.92643 5.47871 4.82333C5.49922 4.72022 5.54984 4.62551 5.62417 4.55118C5.69851 4.47684 5.79322 4.42622 5.89632 4.40571C5.99943 4.3852 6.1063 4.39572 6.20343 4.43595C6.30055 4.47618 6.38356 4.54431 6.44197 4.63172C6.50037 4.71913 6.53155 4.8219 6.53155 4.92702C6.53155 5.06799 6.47555 5.20319 6.37587 5.30287C6.27619 5.40255 6.14099 5.45855 6.00002 5.45855ZM6.00002 0.674805C4.87226 0.674805 3.79069 1.1228 2.99325 1.92025C2.1958 2.7177 1.7478 3.79926 1.7478 4.92702C1.7478 8.11619 4.6021 10.5134 5.63327 11.4967C5.73212 11.5909 5.86345 11.6435 6.00002 11.6435C6.13659 11.6435 6.26792 11.5909 6.36677 11.4967C7.39794 10.5134 10.2522 8.11619 10.2522 4.92702C10.2522 3.79926 9.80424 2.7177 9.00679 1.92025C8.20935 1.1228 7.12778 0.674805 6.00002 0.674805ZM6.00002 10.3805C4.93697 9.35996 2.81086 7.34016 2.81086 4.92702C2.81086 4.0812 3.14686 3.27003 3.74494 2.67194C4.34303 2.07386 5.1542 1.73786 6.00002 1.73786C6.84584 1.73786 7.65702 2.07386 8.2551 2.67194C8.85318 3.27003 9.18918 4.0812 9.18918 4.92702C9.18918 7.34016 7.08965 9.35996 6.00002 10.3805Z" fill="#868686"/>
</svg>
