<svg width="10" height="10" viewBox="0 0 10 10" fill="none" xmlns="http://www.w3.org/2000/svg">
<path d="M10 5C10 5.98891 9.70676 6.95561 9.15735 7.77785C8.60794 8.6001 7.82705 9.24096 6.91342 9.6194C5.99979 9.99784 4.99446 10.0969 4.02455 9.90393C3.05465 9.711 2.16373 9.2348 1.46447 8.53553C0.765206 7.83627 0.289002 6.94536 0.0960758 5.97545C-0.0968503 5.00555 0.00216642 4.00021 0.380605 3.08658C0.759043 2.17295 1.39991 1.39206 2.22215 0.842652C3.0444 0.293245 4.0111 0 5 0C5.65661 0 6.30679 0.129329 6.91342 0.380602C7.52005 0.631876 8.07124 1.00017 8.53554 1.46447C8.99983 1.92876 9.36813 2.47995 9.6194 3.08658C9.87067 3.69321 10 4.34339 10 5ZM9 5C8.99927 4.07462 8.67772 3.17812 8.09012 2.46323C7.50252 1.74835 6.68524 1.25931 5.77751 1.07944C4.86977 0.899565 3.92776 1.03999 3.11195 1.47678C2.29614 1.91357 1.65701 2.61971 1.30346 3.47489C0.949905 4.33007 0.903796 5.28138 1.17299 6.16674C1.44218 7.0521 2.01002 7.81674 2.77976 8.33039C3.54951 8.84403 4.47353 9.0749 5.3944 8.98365C6.31527 8.89241 7.17602 8.48471 7.83 7.83C8.20134 7.45825 8.4958 7.01698 8.69655 6.5314C8.8973 6.04582 9.00041 5.52544 9 5Z" fill="#868686"/>
<path d="M7 4L6.01897 6.94308C6.0129 6.96131 5.9871 6.96131 5.98103 6.94308L5.01897 4.05692C5.0129 4.03869 4.9871 4.03869 4.98103 4.05692L4.01897 6.94308C4.0129 6.96131 3.9871 6.96131 3.98103 6.94308L3 4" stroke="#868686" stroke-linecap="round"/>
</svg>
