<svg width="24" height="24" viewBox="0 0 24 24" fill="none" xmlns="http://www.w3.org/2000/svg">
<path d="M12.0801 4.31738C12.0904 4.32158 12.1078 4.33095 12.126 4.36523L15.4219 10.5811C15.8663 11.4191 16.9676 11.6396 17.7002 11.0371L21.1562 8.19336C21.499 7.91132 22.0126 8.18208 21.9727 8.62402L21.0225 19.0449C20.999 19.3024 20.783 19.5 20.5244 19.5H12.4375C12.1614 19.5 11.9375 19.2761 11.9375 19V4.41211C11.9375 4.37316 11.9489 4.35716 11.9561 4.34863C11.9665 4.33622 11.9858 4.32235 12.0137 4.31543C12.0414 4.30857 12.0651 4.31131 12.0801 4.31738Z" fill="#FCFCFC" stroke="#0E0D0D"/>
<path d="M11.9199 4.31738C11.9096 4.32158 11.8922 4.33095 11.874 4.36523L8.57812 10.5811C8.13371 11.4191 7.0324 11.6396 6.2998 11.0371L2.84375 8.19336C2.50099 7.91132 1.98739 8.18208 2.02734 8.62402L2.97754 19.0449C3.00101 19.3024 3.21703 19.5 3.47559 19.5H12.0625V4.41211C12.0625 4.37316 12.0511 4.35716 12.0439 4.34863C12.0335 4.33622 12.0142 4.32235 11.9863 4.31543C11.9586 4.30857 11.9349 4.31131 11.9199 4.31738Z" fill="#0E0D0D" stroke="#0E0D0D"/>
</svg>
