<svg width="32" height="32" viewBox="0 0 32 32" fill="none" xmlns="http://www.w3.org/2000/svg">
<rect x="0.5" y="0.5" width="31" height="31" rx="15.5" fill="white"/>
<rect x="0.5" y="0.5" width="31" height="31" rx="15.5" stroke="#E4E3E3"/>
<path d="M13.5867 12.6667C13.538 12.6102 13.5009 12.5448 13.4776 12.474C13.4543 12.4032 13.4452 12.3285 13.4507 12.2542C13.4563 12.1799 13.4765 12.1074 13.5101 12.0409C13.5437 11.9744 13.5901 11.9152 13.6467 11.8667L15.6467 10.1467C15.6674 10.1309 15.6897 10.1175 15.7133 10.1067C15.7444 10.0849 15.778 10.067 15.8133 10.0533H15.9133L16 10H16.1067H16.2067C16.242 10.0137 16.2756 10.0316 16.3067 10.0533C16.3303 10.0642 16.3527 10.0776 16.3733 10.0933L18.3733 11.8133C18.4365 11.8596 18.4895 11.9185 18.5287 11.9863C18.568 12.0541 18.5928 12.1292 18.6016 12.2071C18.6104 12.2849 18.6029 12.3638 18.5797 12.4386C18.5564 12.5134 18.5179 12.5826 18.4666 12.6418C18.4153 12.7009 18.3523 12.7488 18.2815 12.7824C18.2107 12.816 18.1337 12.8346 18.0554 12.8369C17.9771 12.8393 17.8992 12.8253 17.8265 12.796C17.7539 12.7667 17.6881 12.7227 17.6333 12.6667L16.6667 11.8933V17.2267C16.6667 17.4035 16.5964 17.573 16.4714 17.6981C16.3464 17.8231 16.1768 17.8933 16 17.8933C15.8232 17.8933 15.6536 17.8231 15.5286 17.6981C15.4036 17.573 15.3333 17.4035 15.3333 17.2267V11.8933L14.3867 12.7133C14.2744 12.8132 14.127 12.8644 13.977 12.8557C13.827 12.8469 13.6866 12.7789 13.5867 12.6667ZM21.3333 16.6667C21.1565 16.6667 20.987 16.7369 20.8619 16.8619C20.7369 16.987 20.6667 17.1565 20.6667 17.3333V19.3333C20.6667 19.5101 20.5964 19.6797 20.4714 19.8047C20.3464 19.9298 20.1768 20 20 20H12C11.8232 20 11.6536 19.9298 11.5286 19.8047C11.4036 19.6797 11.3333 19.5101 11.3333 19.3333V17.3333C11.3333 17.1565 11.2631 16.987 11.1381 16.8619C11.013 16.7369 10.8435 16.6667 10.6667 16.6667C10.4899 16.6667 10.3203 16.7369 10.1953 16.8619C10.0702 16.987 10 17.1565 10 17.3333V19.3333C10 19.8638 10.2107 20.3725 10.5858 20.7475C10.9609 21.1226 11.4696 21.3333 12 21.3333H20C20.5304 21.3333 21.0391 21.1226 21.4142 20.7475C21.7893 20.3725 22 19.8638 22 19.3333V17.3333C22 17.1565 21.9298 16.987 21.8047 16.8619C21.6797 16.7369 21.5101 16.6667 21.3333 16.6667Z" fill="#868686"/>
</svg>
