<svg width="12" height="12" viewBox="0 0 12 12" fill="none" xmlns="http://www.w3.org/2000/svg">
<g clip-path="url(#clip0_3784_5179)">
<g clip-path="url(#clip1_3784_5179)">
<path d="M4.07617 5.46973C4.21681 5.46974 4.35171 5.52557 4.45117 5.625C4.55061 5.72444 4.6064 5.85938 4.60645 6C4.60645 6.14063 4.55058 6.27553 4.45117 6.375C4.3517 6.47447 4.21684 6.53026 4.07617 6.53027C3.75343 6.53056 3.44268 6.64377 3.19531 6.84668L3.09277 6.93848L2.41016 7.61621C2.14896 7.87751 2.00205 8.2321 2.00195 8.60156C2.00195 8.97122 2.14879 9.32649 2.41016 9.58789C2.67156 9.8493 3.0268 9.99609 3.39648 9.99609C3.766 9.99603 4.1205 9.84912 4.38184 9.58789L5.05957 8.90527C5.32052 8.64459 5.46745 8.29073 5.46777 7.92188C5.46782 7.78125 5.52361 7.64631 5.62305 7.54688C5.72252 7.44747 5.85741 7.3916 5.99805 7.3916C6.13869 7.39162 6.27358 7.44745 6.37305 7.54688C6.47249 7.64631 6.52827 7.78125 6.52832 7.92188C6.5289 8.24414 6.46564 8.56341 6.34277 8.86133C6.25058 9.08484 6.12622 9.29308 5.97363 9.47949L5.8125 9.6582L5.13086 10.3594L5.12988 10.3604C4.66737 10.8071 4.04729 11.0544 3.4043 11.0488C2.76136 11.0432 2.14605 10.7847 1.69141 10.3301C1.23705 9.87553 0.97933 9.26083 0.973633 8.61816C0.968045 7.97517 1.2154 7.35509 1.66211 6.89258L2.33984 6.20996C2.5659 5.97812 2.83594 5.79306 3.13379 5.66602C3.4317 5.539 3.75232 5.47236 4.07617 5.46973ZM7.43945 4.02637C7.58061 4.02638 7.7156 4.08282 7.81543 4.18262C7.91524 4.28242 7.97163 4.41745 7.97168 4.55859C7.97168 4.6998 7.91528 4.8357 7.81543 4.93555L4.93262 7.81738C4.88338 7.86702 4.82526 7.90667 4.76074 7.93359C4.69612 7.96052 4.62665 7.9746 4.55664 7.97461C4.48661 7.97461 4.41718 7.96052 4.35254 7.93359C4.28801 7.90668 4.22893 7.86799 4.17969 7.81836V7.81738C4.13031 7.76822 4.09126 7.70983 4.06445 7.64551C4.03752 7.58087 4.02344 7.51143 4.02344 7.44141C4.02346 7.37144 4.03755 7.30189 4.06445 7.2373C4.09129 7.17303 4.1303 7.11455 4.17969 7.06543L7.0625 4.18262C7.16235 4.08277 7.29824 4.02637 7.43945 4.02637ZM8.12207 0.996094C8.59739 0.902176 9.0896 0.951011 9.53711 1.13672C9.98467 1.32246 10.3676 1.63612 10.6367 2.03906C10.9058 2.44198 11.0496 2.91589 11.0498 3.40039L11.04 3.6416C10.9905 4.19933 10.7515 4.72634 10.3584 5.13184L10.3574 5.13281L9.65527 5.81543C9.4273 6.04262 9.15691 6.22298 8.85938 6.3457C8.5615 6.46856 8.24213 6.53083 7.91992 6.53027C7.77923 6.53027 7.6444 6.47448 7.54492 6.375C7.44548 6.27552 7.38965 6.14066 7.38965 6C7.3897 5.85938 7.44548 5.72444 7.54492 5.625C7.64439 5.52559 7.77929 5.46973 7.91992 5.46973C8.28878 5.46937 8.64266 5.32251 8.90332 5.06152L9.58496 4.38379C9.7144 4.25435 9.81764 4.10076 9.8877 3.93164C9.95767 3.7626 9.99316 3.58139 9.99316 3.39844C9.99316 3.21548 9.95768 3.03428 9.8877 2.86523C9.81764 2.69612 9.7144 2.54252 9.58496 2.41309C9.45554 2.28368 9.3019 2.18039 9.13281 2.11035C8.96381 2.04041 8.78252 2.00488 8.59961 2.00488C8.41667 2.0049 8.23543 2.04037 8.06641 2.11035C7.89729 2.1804 7.74369 2.28365 7.61426 2.41309L6.93652 3.09473C6.67557 3.35536 6.52871 3.70931 6.52832 4.07812C6.52832 4.21876 6.47245 4.35365 6.37305 4.45312C6.27358 4.55259 6.13872 4.60838 5.99805 4.6084C5.85736 4.6084 5.72253 4.55261 5.62305 4.45312C5.52361 4.35365 5.46777 4.21878 5.46777 4.07812C5.46723 3.75596 5.52951 3.4365 5.65234 3.13867C5.77521 2.84081 5.95604 2.56992 6.18359 2.3418L6.86621 1.66406C7.20939 1.3221 7.6468 1.09008 8.12207 0.996094Z" fill="#868686" stroke="#868686" stroke-width="0.1"/>
</g>
</g>
<defs>
<clipPath id="clip0_3784_5179">
<rect width="12" height="12" fill="white"/>
</clipPath>
<clipPath id="clip1_3784_5179">
<rect width="12" height="12" fill="white"/>
</clipPath>
</defs>
</svg>
